<svg width="95" height="21" viewBox="0 0 95 21" fill="none" xmlns="http://www.w3.org/2000/svg">
<g id="App Store" clip-path="url(#clip0_12_75)">
<path id="Path 30" d="M9.87285 12.3667H3.93873L2.51322 16.6647H-0.00228882L5.61931 0.765021H8.23134L13.8545 16.6654H11.2976L9.87285 12.3667ZM4.55229 10.3843H9.25623L6.93758 3.40998H6.87247L4.55229 10.3851V10.3843ZM25.9931 10.8692C25.9931 14.4693 24.1057 16.7849 21.2562 16.7849C20.5298 16.821 19.8081 16.6495 19.1756 16.2904C18.543 15.9314 18.0258 15.3996 17.6844 14.7574H17.6308V20.5023H15.3007V5.06912H17.5565V6.99712H17.5994C17.9577 6.35822 18.4842 5.82972 19.1217 5.46902C19.7593 5.10832 20.4835 4.92922 21.2156 4.95116C24.0973 4.95116 25.9954 7.27747 25.9954 10.8692H25.9931ZM23.5986 10.8692C23.5986 8.52144 22.4106 6.9795 20.5982 6.9795C18.8181 6.9795 17.6208 8.55437 17.6208 10.8692C17.6208 13.2047 18.8181 14.7688 20.5982 14.7688C22.4113 14.7688 23.5986 13.2369 23.5986 10.8692ZM38.4879 10.8692C38.4879 14.4693 36.599 16.7849 33.7503 16.7849C33.0238 16.8212 32.302 16.6499 31.6693 16.291C31.0366 15.932 30.5193 15.4003 30.1777 14.7581H30.1241V20.503H27.7947V5.06912H30.0506V6.99712H30.0935C30.4512 6.35801 30.9771 5.82912 31.6143 5.46788C32.2514 5.10665 32.9753 4.92688 33.7074 4.94809C36.5891 4.94809 38.4887 7.2744 38.4887 10.8661L38.4879 10.8692ZM36.0919 10.8692C36.0919 8.52144 34.9039 6.9795 33.0923 6.9795C31.3121 6.9795 30.1149 8.55437 30.1149 10.8692C30.1149 13.2047 31.3114 14.7688 33.0923 14.7688C34.9046 14.7688 36.0919 13.2369 36.0919 10.8692ZM46.7438 12.2342C46.9169 13.8106 48.4159 14.8462 50.4665 14.8462C52.4305 14.8462 53.8438 13.8106 53.8438 12.3897C53.8438 11.1549 52.9912 10.4157 50.9736 9.91017L48.956 9.41305C46.0973 8.70757 44.7691 7.34488 44.7691 5.1235C44.7691 2.37896 47.1099 0.495392 50.4328 0.495392C53.7266 0.495392 55.9801 2.37973 56.0559 5.1235H53.7043C53.5634 3.53637 52.2788 2.57812 50.4021 2.57812C48.5255 2.57812 47.2409 3.54786 47.2409 4.95805C47.2409 6.08252 48.0613 6.74357 50.0674 7.24989L51.7825 7.68038C54.9774 8.45173 56.3018 9.76234 56.3018 12.0879C56.3018 15.0622 53.9839 16.9259 50.2926 16.9259C46.8403 16.9259 44.5086 15.1067 44.3577 12.2304H46.7438V12.2342ZM61.3344 2.32841V5.06912H63.4922V6.95345H61.3344V13.3433C61.3344 14.3391 61.7664 14.7987 62.7131 14.7987C62.9693 14.7939 63.225 14.7755 63.4791 14.7436V16.6172C63.0526 16.6984 62.6187 16.7351 62.1846 16.7267C59.8866 16.7267 58.9904 15.8451 58.9904 13.5969V6.95728H57.339V5.06912H58.9897V2.32841H61.3313H61.3344ZM64.7423 10.8692C64.7423 7.22155 66.8457 4.92971 70.1256 4.92971C73.4056 4.92971 75.5105 7.22155 75.5105 10.8692C75.5105 14.5168 73.4278 16.8087 70.1256 16.8087C66.8234 16.8087 64.7423 14.5268 64.7423 10.87V10.8692ZM73.1367 10.8692C73.1367 8.36671 72.0138 6.89064 70.1256 6.89064C68.2375 6.89064 67.1145 8.3782 67.1145 10.8692C67.1145 13.3809 68.2375 14.8462 70.1256 14.8462C72.0138 14.8462 73.1367 13.3809 73.1367 10.8692ZM77.4316 5.06912H79.653V7.04537H79.7074C79.8507 6.43466 80.201 5.89238 80.6988 5.51063C81.1966 5.12888 81.8112 4.9312 82.4382 4.95116C82.7067 4.95039 82.9745 4.9802 83.2363 5.04001V7.26598C82.8975 7.16007 82.5433 7.11141 82.1884 7.12197C81.8483 7.10898 81.5095 7.17086 81.196 7.30322C80.8824 7.43558 80.6017 7.6352 80.3738 7.88796C80.1425 8.1436 79.9682 8.44555 79.8625 8.77374C79.7569 9.10193 79.7223 9.44885 79.761 9.79145V16.6677H77.4316V5.06912ZM93.977 13.2568C93.6637 15.361 91.6568 16.8056 89.0892 16.8056C85.7871 16.8056 83.738 14.5459 83.738 10.9205C83.738 7.29508 85.7978 4.92664 88.9912 4.92664C92.1318 4.92664 94.1072 7.12963 94.1072 10.644V11.4598H86.095V11.6038C86.0563 12.0297 86.1073 12.4589 86.2448 12.8638C86.3822 13.2688 86.6031 13.6404 86.8932 13.9546C87.1792 14.2639 87.5286 14.5078 87.9175 14.6696C88.3064 14.8314 88.7257 14.9073 89.1467 14.8922C89.7012 14.9419 90.2569 14.8097 90.7296 14.5156C91.2024 14.2215 91.5666 13.7815 91.7672 13.2621L93.977 13.2568ZM86.1003 9.79757H91.7756C91.7966 9.41503 91.7396 9.0322 91.6079 8.67242C91.4762 8.31264 91.2726 7.98344 91.0096 7.70489C90.7507 7.42977 90.4369 7.21202 90.0886 7.06569C89.7402 6.91937 89.3651 6.84773 88.9874 6.85541C88.6066 6.85369 88.2294 6.92848 87.878 7.07532C87.5267 7.22216 87.2085 7.43808 86.9422 7.71025C86.3982 8.26813 86.0955 9.01763 86.0996 9.79681L86.1003 9.79757Z" fill="white"/>
</g>
<defs>
<clipPath id="clip0_12_75">
<rect width="94.1095" height="20" fill="white" transform="translate(0 0.5)"/>
</clipPath>
</defs>
</svg>
