<svg width="40" height="41" viewBox="0 0 40 41" fill="none" xmlns="http://www.w3.org/2000/svg">
<g id="apple icon">
<path id="Path 2" d="M30.0585 21.707C30.075 20.2552 30.4491 18.8309 31.1464 17.5656C31.8437 16.3002 32.8417 15.2343 34.0486 14.4662C33.2885 13.3432 32.2813 12.4177 31.1077 11.7639C29.934 11.11 28.6267 10.746 27.2904 10.701C24.4462 10.3906 21.6893 12.4594 20.2414 12.4594C18.7631 12.4594 16.533 10.7361 14.1306 10.7868C12.5724 10.8419 11.0549 11.3095 9.727 12.1436C8.39908 12.9778 7.30628 14.1499 6.55573 15.545C3.27997 21.3853 5.72285 29.9708 8.8598 34.6928C10.4303 37.0047 12.2642 39.5907 14.6646 39.4976C17.0132 39.3941 17.8907 37.9542 20.7267 37.9542C23.5354 37.9542 24.3581 39.4976 26.806 39.4396C29.3259 39.3983 30.9137 37.1164 32.4284 34.7848C33.5574 33.1347 34.4252 31.3137 35 29.3884C33.5307 28.7431 32.2791 27.6718 31.4003 26.3073C30.5216 24.9428 30.0544 23.3451 30.0565 21.7121L30.0585 21.707ZM25.4321 7.59157C26.8072 5.88562 27.4825 3.70277 27.3167 1.5C25.2125 1.72973 23.2717 2.76459 21.8848 4.39631C20.5075 6.0145 19.8114 8.12215 19.9475 10.2613C21 10.2713 22.0409 10.036 22.9908 9.57311C23.9408 9.11027 24.7747 8.43219 25.4291 7.59053L25.4321 7.59157Z" fill="white"/>
</g>
</svg>
