<svg width="207" height="207" viewBox="0 0 207 207" fill="none" xmlns="http://www.w3.org/2000/svg">
<g id="Group 10595">
<g id="Rectangle 3730" filter="url(#filter0_d_1_4885)">
<rect x="4" y="3" width="199" height="199" rx="4" fill="white"/>
</g>
<path id="path3093" d="M17.2666 16.2667V24.4794V32.6921V40.9048V49.1175V57.3302V65.5429V73.7556H25.4793H33.692H41.9047H50.1174H58.3301H66.5428H74.7555V65.5429V57.3302V49.1175V40.9048V32.6921V24.4794V16.2667H66.5428H58.3301H50.1174H41.9047H33.692H25.4793H17.2666ZM82.9682 16.2667V24.4794V32.6921H91.1809V24.4794H99.3936V16.2667H91.1809H82.9682ZM99.3936 24.4794V32.6921H107.606V24.4794H99.3936ZM107.606 32.6921V40.9048H115.819H124.032V32.6921V24.4794V16.2667H115.819V24.4794V32.6921H107.606ZM107.606 40.9048H99.3936H91.1809H82.9682V49.1175H91.1809H99.3936V57.3302H91.1809V65.5429H99.3936V73.7556H107.606V65.5429H115.819V73.7556H107.606V81.9683H99.3936V90.181H107.606H115.819V98.3937H124.032V90.181V81.9683V73.7556V65.5429V57.3302H115.819V49.1175H107.606V40.9048ZM115.819 98.3937H107.606V106.606H99.3936V114.819V123.032H107.606V131.245V139.457H99.3936H91.1809V131.245H99.3936V123.032H91.1809V114.819V106.606H82.9682V98.3937H91.1809V106.606H99.3936V98.3937V90.181H91.1809H82.9682V81.9683H74.7555H66.5428H58.3301V90.181H50.1174V98.3937H41.9047V90.181H50.1174V81.9683H41.9047H33.692V90.181H25.4793V98.3937V106.606V114.819H33.692V106.606H41.9047H50.1174H58.3301V98.3937H66.5428V90.181H74.7555V98.3937H66.5428V106.606H74.7555V114.819H66.5428V123.032H74.7555H82.9682V131.245V139.457V147.67H91.1809V155.883H99.3936H107.606H115.819V164.095H107.606H99.3936H91.1809V155.883H82.9682V164.095V172.308H91.1809V180.521H82.9682V188.733H91.1809H99.3936V180.521H107.606V188.733H115.819H124.032H132.244H140.457V180.521H148.67V188.733H156.882H165.095H173.308V180.521H165.095H156.882V172.308H148.67V164.095H140.457V172.308H132.244H124.032V180.521H115.819V172.308H124.032V164.095V155.883V147.67H132.244V139.457H124.032H115.819V131.245H124.032V123.032V114.819V106.606H115.819V98.3937ZM140.457 164.095V155.883H132.244V164.095H140.457ZM156.882 172.308H165.095H173.308V164.095H165.095H156.882V172.308ZM173.308 164.095H181.521V155.883V147.67V139.457V131.245H173.308H165.095H156.882V123.032H148.67V131.245H140.457V139.457V147.67H148.67V139.457H156.882V147.67V155.883H165.095H173.308V164.095ZM148.67 123.032V114.819H140.457H132.244V123.032H140.457H148.67ZM156.882 123.032H165.095V114.819V106.606V98.3937H173.308V106.606H181.521V114.819H189.733V106.606V98.3937H181.521V90.181H189.733V81.9683H181.521H173.308V90.181H165.095V81.9683H156.882V90.181H148.67V98.3937H156.882V106.606V114.819V123.032ZM148.67 98.3937H140.457V106.606H148.67V98.3937ZM181.521 114.819H173.308V123.032H181.521V114.819ZM66.5428 114.819V106.606H58.3301V114.819H66.5428ZM58.3301 114.819H50.1174H41.9047H33.692V123.032H41.9047H50.1174H58.3301V114.819ZM25.4793 114.819H17.2666V123.032H25.4793V114.819ZM25.4793 90.181V81.9683H17.2666V90.181H25.4793ZM82.9682 81.9683H91.1809V73.7556V65.5429H82.9682V73.7556V81.9683ZM132.244 16.2667V24.4794V32.6921V40.9048V49.1175V57.3302V65.5429V73.7556H140.457H148.67H156.882H165.095H173.308H181.521H189.733V65.5429V57.3302V49.1175V40.9048V32.6921V24.4794V16.2667H181.521H173.308H165.095H156.882H148.67H140.457H132.244ZM25.4793 24.4794H33.692H41.9047H50.1174H58.3301H66.5428V32.6921V40.9048V49.1175V57.3302V65.5429H58.3301H50.1174H41.9047H33.692H25.4793V57.3302V49.1175V40.9048V32.6921V24.4794ZM140.457 24.4794H148.67H156.882H165.095H173.308H181.521V32.6921V40.9048V49.1175V57.3302V65.5429H173.308H165.095H156.882H148.67H140.457V57.3302V49.1175V40.9048V32.6921V24.4794ZM33.692 32.6921V40.9048V49.1175V57.3302H41.9047H50.1174H58.3301V49.1175V40.9048V32.6921H50.1174H41.9047H33.692ZM148.67 32.6921V40.9048V49.1175V57.3302H156.882H165.095H173.308V49.1175V40.9048V32.6921H165.095H156.882H148.67ZM132.244 81.9683V90.181H140.457V81.9683H132.244ZM17.2666 131.245V139.457V147.67V155.883V164.095V172.308V180.521V188.733H25.4793H33.692H41.9047H50.1174H58.3301H66.5428H74.7555V180.521V172.308V164.095V155.883V147.67V139.457V131.245H66.5428H58.3301H50.1174H41.9047H33.692H25.4793H17.2666ZM25.4793 139.457H33.692H41.9047H50.1174H58.3301H66.5428V147.67V155.883V164.095V172.308V180.521H58.3301H50.1174H41.9047H33.692H25.4793V172.308V164.095V155.883V147.67V139.457ZM33.692 147.67V155.883V164.095V172.308H41.9047H50.1174H58.3301V164.095V155.883V147.67H50.1174H41.9047H33.692ZM181.521 172.308V180.521H189.733V172.308H181.521Z" fill="black"/>
</g>
<defs>
<filter id="filter0_d_1_4885" x="0" y="0" width="207" height="207" filterUnits="userSpaceOnUse" color-interpolation-filters="sRGB">
<feFlood flood-opacity="0" result="BackgroundImageFix"/>
<feColorMatrix in="SourceAlpha" type="matrix" values="0 0 0 0 0 0 0 0 0 0 0 0 0 0 0 0 0 0 127 0" result="hardAlpha"/>
<feOffset dy="1"/>
<feGaussianBlur stdDeviation="2"/>
<feComposite in2="hardAlpha" operator="out"/>
<feColorMatrix type="matrix" values="0 0 0 0 0 0 0 0 0 0 0 0 0 0 0 0 0 0 0.15 0"/>
<feBlend mode="normal" in2="BackgroundImageFix" result="effect1_dropShadow_1_4885"/>
<feBlend mode="normal" in="SourceGraphic" in2="effect1_dropShadow_1_4885" result="shape"/>
</filter>
</defs>
</svg>
