<svg width="180" height="63" viewBox="0 0 180 63" fill="none" xmlns="http://www.w3.org/2000/svg">
<rect x="1" y="1" width="178" height="61" rx="9" fill="black"/>
<path d="M46.0585 32.707C46.075 31.2552 46.4491 29.8309 47.1464 28.5656C47.8437 27.3002 48.8417 26.2343 50.0486 25.4662C49.2885 24.3432 48.2813 23.4177 47.1077 22.7639C45.934 22.11 44.6267 21.746 43.2904 21.701C40.4462 21.3906 37.6893 23.4594 36.2414 23.4594C34.7631 23.4594 32.533 21.7361 30.1306 21.7868C28.5724 21.8419 27.0549 22.3095 25.727 23.1436C24.3991 23.9778 23.3063 25.1499 22.5557 26.545C19.28 32.3853 21.7229 40.9708 24.8598 45.6928C26.4303 48.0047 28.2642 50.5907 30.6646 50.4976C33.0132 50.3941 33.8907 48.9542 36.7267 48.9542C39.5354 48.9542 40.3581 50.4976 42.806 50.4396C45.3259 50.3983 46.9137 48.1164 48.4284 45.7848C49.5574 44.1347 50.4252 42.3137 51 40.3884C49.5307 39.7431 48.2791 38.6718 47.4003 37.3073C46.5216 35.9428 46.0544 34.3451 46.0565 32.7121L46.0585 32.707ZM41.4321 18.5916C42.8072 16.8856 43.4825 14.7028 43.3167 12.5C41.2125 12.7297 39.2717 13.7646 37.8848 15.3963C36.5075 17.0145 35.8114 19.1221 35.9475 21.2613C37 21.2713 38.0409 21.036 38.9908 20.5731C39.9408 20.1103 40.7747 19.4322 41.4291 18.5905L41.4321 18.5916Z" fill="white"/>
<path d="M73.5371 21.3438C73.5371 21.1445 73.5059 20.9688 73.4434 20.8164C73.3848 20.6602 73.2793 20.5195 73.127 20.3945C72.9785 20.2695 72.7715 20.1504 72.5059 20.0371C72.2441 19.9238 71.9121 19.8086 71.5098 19.6914C71.0879 19.5664 70.707 19.4277 70.3672 19.2754C70.0273 19.1191 69.7363 18.9414 69.4941 18.7422C69.252 18.543 69.0664 18.3145 68.9375 18.0566C68.8086 17.7988 68.7441 17.5039 68.7441 17.1719C68.7441 16.8398 68.8125 16.5332 68.9492 16.252C69.0859 15.9707 69.2812 15.7266 69.5352 15.5195C69.793 15.3086 70.0996 15.1445 70.4551 15.0273C70.8105 14.9102 71.207 14.8516 71.6445 14.8516C72.2852 14.8516 72.8281 14.9746 73.2734 15.2207C73.7227 15.4629 74.0645 15.7812 74.2988 16.1758C74.5332 16.5664 74.6504 16.9844 74.6504 17.4297H73.5254C73.5254 17.1094 73.457 16.8262 73.3203 16.5801C73.1836 16.3301 72.9766 16.1348 72.6992 15.9941C72.4219 15.8496 72.0703 15.7773 71.6445 15.7773C71.2422 15.7773 70.9102 15.8379 70.6484 15.959C70.3867 16.0801 70.1914 16.2441 70.0625 16.4512C69.9375 16.6582 69.875 16.8945 69.875 17.1602C69.875 17.3398 69.9121 17.5039 69.9863 17.6523C70.0645 17.7969 70.1836 17.9316 70.3438 18.0566C70.5078 18.1816 70.7148 18.2969 70.9648 18.4023C71.2188 18.5078 71.5215 18.6094 71.873 18.707C72.3574 18.8438 72.7754 18.9961 73.127 19.1641C73.4785 19.332 73.7676 19.5215 73.9941 19.7324C74.2246 19.9395 74.3945 20.1758 74.5039 20.4414C74.6172 20.7031 74.6738 21 74.6738 21.332C74.6738 21.6797 74.6035 21.9941 74.4629 22.2754C74.3223 22.5566 74.1211 22.7969 73.8594 22.9961C73.5977 23.1953 73.2832 23.3496 72.916 23.459C72.5527 23.5645 72.1465 23.6172 71.6973 23.6172C71.3027 23.6172 70.9141 23.5625 70.5312 23.4531C70.1523 23.3438 69.8066 23.1797 69.4941 22.9609C69.1855 22.7422 68.9375 22.4727 68.75 22.1523C68.5664 21.8281 68.4746 21.4531 68.4746 21.0273H69.5996C69.5996 21.3203 69.6562 21.5723 69.7695 21.7832C69.8828 21.9902 70.0371 22.1621 70.2324 22.2988C70.4316 22.4355 70.6562 22.5371 70.9062 22.6035C71.1602 22.666 71.4238 22.6973 71.6973 22.6973C72.0918 22.6973 72.4258 22.6426 72.6992 22.5332C72.9727 22.4238 73.1797 22.2676 73.3203 22.0645C73.4648 21.8613 73.5371 21.6211 73.5371 21.3438ZM78.6055 17.1602V17.9922H75.1777V17.1602H78.6055ZM76.3379 15.6191H77.4219V21.9297C77.4219 22.1445 77.4551 22.3066 77.5215 22.416C77.5879 22.5254 77.6738 22.5977 77.7793 22.6328C77.8848 22.668 77.998 22.6855 78.1191 22.6855C78.209 22.6855 78.3027 22.6777 78.4004 22.6621C78.502 22.6426 78.5781 22.627 78.6289 22.6152L78.6348 23.5C78.5488 23.5273 78.4355 23.5527 78.2949 23.5762C78.1582 23.6035 77.9922 23.6172 77.7969 23.6172C77.5312 23.6172 77.2871 23.5645 77.0645 23.459C76.8418 23.3535 76.6641 23.1777 76.5312 22.9316C76.4023 22.6816 76.3379 22.3457 76.3379 21.9238V15.6191ZM83.6152 22.416V19.1523C83.6152 18.9023 83.5645 18.6855 83.4629 18.502C83.3652 18.3145 83.2168 18.1699 83.0176 18.0684C82.8184 17.9668 82.5723 17.916 82.2793 17.916C82.0059 17.916 81.7656 17.9629 81.5586 18.0566C81.3555 18.1504 81.1953 18.2734 81.0781 18.4258C80.9648 18.5781 80.9082 18.7422 80.9082 18.918H79.8242C79.8242 18.6914 79.8828 18.4668 80 18.2441C80.1172 18.0215 80.2852 17.8203 80.5039 17.6406C80.7266 17.457 80.9922 17.3125 81.3008 17.207C81.6133 17.0977 81.9609 17.043 82.3438 17.043C82.8047 17.043 83.2109 17.1211 83.5625 17.2773C83.918 17.4336 84.1953 17.6699 84.3945 17.9863C84.5977 18.2988 84.6992 18.6914 84.6992 19.1641V22.1172C84.6992 22.3281 84.7168 22.5527 84.752 22.791C84.791 23.0293 84.8477 23.2344 84.9219 23.4062V23.5H83.791C83.7363 23.375 83.6934 23.209 83.6621 23.002C83.6309 22.791 83.6152 22.5957 83.6152 22.416ZM83.8027 19.6562L83.8145 20.418H82.7188C82.4102 20.418 82.1348 20.4434 81.8926 20.4941C81.6504 20.541 81.4473 20.6133 81.2832 20.7109C81.1191 20.8086 80.9941 20.9316 80.9082 21.0801C80.8223 21.2246 80.7793 21.3945 80.7793 21.5898C80.7793 21.7891 80.8242 21.9707 80.9141 22.1348C81.0039 22.2988 81.1387 22.4297 81.3184 22.5273C81.502 22.6211 81.7266 22.668 81.9922 22.668C82.3242 22.668 82.6172 22.5977 82.8711 22.457C83.125 22.3164 83.3262 22.1445 83.4746 21.9414C83.627 21.7383 83.709 21.541 83.7207 21.3496L84.1836 21.8711C84.1562 22.0352 84.082 22.2168 83.9609 22.416C83.8398 22.6152 83.6777 22.8066 83.4746 22.9902C83.2754 23.1699 83.0371 23.3203 82.7598 23.4414C82.4863 23.5586 82.1777 23.6172 81.834 23.6172C81.4043 23.6172 81.0273 23.5332 80.7031 23.3652C80.3828 23.1973 80.1328 22.9727 79.9531 22.6914C79.7773 22.4062 79.6895 22.0879 79.6895 21.7363C79.6895 21.3965 79.7559 21.0977 79.8887 20.8398C80.0215 20.5781 80.2129 20.3613 80.4629 20.1895C80.7129 20.0137 81.0137 19.8809 81.3652 19.791C81.7168 19.7012 82.1094 19.6562 82.543 19.6562H83.8027ZM81.8633 16.2227L83 14.5H84.3066L82.7363 16.2227H81.8633ZM87.4883 14.5V23.5H86.4043V14.5H87.4883ZM87.2305 20.0898L86.7793 20.0723C86.7832 19.6387 86.8477 19.2383 86.9727 18.8711C87.0977 18.5 87.2734 18.1777 87.5 17.9043C87.7266 17.6309 87.9961 17.4199 88.3086 17.2715C88.625 17.1191 88.9746 17.043 89.3574 17.043C89.6699 17.043 89.9512 17.0859 90.2012 17.1719C90.4512 17.2539 90.6641 17.3867 90.8398 17.5703C91.0195 17.7539 91.1562 17.9922 91.25 18.2852C91.3438 18.5742 91.3906 18.9277 91.3906 19.3457V23.5H90.3008V19.334C90.3008 19.002 90.252 18.7363 90.1543 18.5371C90.0566 18.334 89.9141 18.1875 89.7266 18.0977C89.5391 18.0039 89.3086 17.957 89.0352 17.957C88.7656 17.957 88.5195 18.0137 88.2969 18.127C88.0781 18.2402 87.8887 18.3965 87.7285 18.5957C87.5723 18.7949 87.4492 19.0234 87.3594 19.2812C87.2734 19.5352 87.2305 19.8047 87.2305 20.0898ZM94.0977 18.5137V23.5H93.0137V17.1602H94.0391L94.0977 18.5137ZM93.8398 20.0898L93.3887 20.0723C93.3926 19.6387 93.457 19.2383 93.582 18.8711C93.707 18.5 93.8828 18.1777 94.1094 17.9043C94.3359 17.6309 94.6055 17.4199 94.918 17.2715C95.2344 17.1191 95.584 17.043 95.9668 17.043C96.2793 17.043 96.5605 17.0859 96.8105 17.1719C97.0605 17.2539 97.2734 17.3867 97.4492 17.5703C97.6289 17.7539 97.7656 17.9922 97.8594 18.2852C97.9531 18.5742 98 18.9277 98 19.3457V23.5H96.9102V19.334C96.9102 19.002 96.8613 18.7363 96.7637 18.5371C96.666 18.334 96.5234 18.1875 96.3359 18.0977C96.1484 18.0039 95.918 17.957 95.6445 17.957C95.375 17.957 95.1289 18.0137 94.9062 18.127C94.6875 18.2402 94.498 18.3965 94.3379 18.5957C94.1816 18.7949 94.0586 19.0234 93.9688 19.2812C93.8828 19.5352 93.8398 19.8047 93.8398 20.0898ZM99.3594 20.4004V20.2656C99.3594 19.8086 99.4258 19.3848 99.5586 18.9941C99.6914 18.5996 99.8828 18.2578 100.133 17.9688C100.383 17.6758 100.686 17.4492 101.041 17.2891C101.396 17.125 101.795 17.043 102.236 17.043C102.682 17.043 103.082 17.125 103.438 17.2891C103.797 17.4492 104.102 17.6758 104.352 17.9688C104.605 18.2578 104.799 18.5996 104.932 18.9941C105.064 19.3848 105.131 19.8086 105.131 20.2656V20.4004C105.131 20.8574 105.064 21.2812 104.932 21.6719C104.799 22.0625 104.605 22.4043 104.352 22.6973C104.102 22.9863 103.799 23.2129 103.443 23.377C103.092 23.5371 102.693 23.6172 102.248 23.6172C101.803 23.6172 101.402 23.5371 101.047 23.377C100.691 23.2129 100.387 22.9863 100.133 22.6973C99.8828 22.4043 99.6914 22.0625 99.5586 21.6719C99.4258 21.2812 99.3594 20.8574 99.3594 20.4004ZM100.443 20.2656V20.4004C100.443 20.7168 100.48 21.0156 100.555 21.2969C100.629 21.5742 100.74 21.8203 100.889 22.0352C101.041 22.25 101.23 22.4199 101.457 22.5449C101.684 22.666 101.947 22.7266 102.248 22.7266C102.545 22.7266 102.805 22.666 103.027 22.5449C103.254 22.4199 103.441 22.25 103.59 22.0352C103.738 21.8203 103.85 21.5742 103.924 21.2969C104.002 21.0156 104.041 20.7168 104.041 20.4004V20.2656C104.041 19.9531 104.002 19.6582 103.924 19.3809C103.85 19.0996 103.736 18.8516 103.584 18.6367C103.436 18.418 103.248 18.2461 103.021 18.1211C102.799 17.9961 102.537 17.9336 102.236 17.9336C101.939 17.9336 101.678 17.9961 101.451 18.1211C101.229 18.2461 101.041 18.418 100.889 18.6367C100.74 18.8516 100.629 19.0996 100.555 19.3809C100.48 19.6582 100.443 19.9531 100.443 20.2656ZM110.369 22.0352V17.1602H111.459V23.5H110.422L110.369 22.0352ZM110.574 20.6992L111.025 20.6875C111.025 21.1094 110.98 21.5 110.891 21.8594C110.805 22.2148 110.664 22.5234 110.469 22.7852C110.273 23.0469 110.018 23.252 109.701 23.4004C109.385 23.5449 109 23.6172 108.547 23.6172C108.238 23.6172 107.955 23.5723 107.697 23.4824C107.443 23.3926 107.225 23.2539 107.041 23.0664C106.857 22.8789 106.715 22.6348 106.613 22.334C106.516 22.0332 106.467 21.6719 106.467 21.25V17.1602H107.551V21.2617C107.551 21.5469 107.582 21.7832 107.645 21.9707C107.711 22.1543 107.799 22.3008 107.908 22.4102C108.021 22.5156 108.146 22.5898 108.283 22.6328C108.424 22.6758 108.568 22.6973 108.717 22.6973C109.178 22.6973 109.543 22.6094 109.812 22.4336C110.082 22.2539 110.275 22.0137 110.393 21.7129C110.514 21.4082 110.574 21.0703 110.574 20.6992ZM115.766 17.1602V17.9922H112.338V17.1602H115.766ZM113.498 15.6191H114.582V21.9297C114.582 22.1445 114.615 22.3066 114.682 22.416C114.748 22.5254 114.834 22.5977 114.939 22.6328C115.045 22.668 115.158 22.6855 115.279 22.6855C115.369 22.6855 115.463 22.6777 115.561 22.6621C115.662 22.6426 115.738 22.627 115.789 22.6152L115.795 23.5C115.709 23.5273 115.596 23.5527 115.455 23.5762C115.318 23.6035 115.152 23.6172 114.957 23.6172C114.691 23.6172 114.447 23.5645 114.225 23.459C114.002 23.3535 113.824 23.1777 113.691 22.9316C113.562 22.6816 113.498 22.3457 113.498 21.9238V15.6191ZM121.941 22.5215L123.676 17.1602H124.783L122.504 23.5H121.777L121.941 22.5215ZM120.494 17.1602L122.281 22.5508L122.404 23.5H121.678L119.381 17.1602H120.494Z" fill="white"/>
<g clip-path="url(#clip0_1_4884)">
<path d="M77.8729 42.3667H71.9387L70.5132 46.6647H67.9977L73.6193 30.765H76.2313L81.8545 46.6654H79.2976L77.8729 42.3667ZM72.5523 40.3843H77.2562L74.9376 33.41H74.8725L72.5523 40.3851V40.3843ZM93.9931 40.8692C93.9931 44.4693 92.1057 46.7849 89.2562 46.7849C88.5298 46.821 87.8081 46.6495 87.1756 46.2904C86.543 45.9314 86.0258 45.3996 85.6844 44.7574H85.6308V50.5023H83.3007V35.0691H85.5565V36.9971H85.5994C85.9577 36.3582 86.4842 35.8297 87.1217 35.469C87.7593 35.1083 88.4835 34.9292 89.2156 34.9512C92.0973 34.9512 93.9954 37.2775 93.9954 40.8692H93.9931ZM91.5986 40.8692C91.5986 38.5214 90.4106 36.9795 88.5982 36.9795C86.8181 36.9795 85.6208 38.5544 85.6208 40.8692C85.6208 43.2047 86.8181 44.7688 88.5982 44.7688C90.4113 44.7688 91.5986 43.2369 91.5986 40.8692ZM106.488 40.8692C106.488 44.4693 104.599 46.7849 101.75 46.7849C101.024 46.8212 100.302 46.6499 99.6693 46.291C99.0366 45.932 98.5193 45.4003 98.1777 44.7581H98.1241V50.503H95.7947V35.0691H98.0506V36.9971H98.0935C98.4512 36.358 98.9771 35.8291 99.6143 35.4679C100.251 35.1066 100.975 34.9269 101.707 34.9481C104.589 34.9481 106.489 37.2744 106.489 40.8661L106.488 40.8692ZM104.092 40.8692C104.092 38.5214 102.904 36.9795 101.092 36.9795C99.3121 36.9795 98.1149 38.5544 98.1149 40.8692C98.1149 43.2047 99.3114 44.7688 101.092 44.7688C102.905 44.7688 104.092 43.2369 104.092 40.8692ZM114.744 42.2342C114.917 43.8106 116.416 44.8462 118.466 44.8462C120.43 44.8462 121.844 43.8106 121.844 42.3897C121.844 41.1549 120.991 40.4157 118.974 39.9102L116.956 39.413C114.097 38.7076 112.769 37.3449 112.769 35.1235C112.769 32.379 115.11 30.4954 118.433 30.4954C121.727 30.4954 123.98 32.3797 124.056 35.1235H121.704C121.563 33.5364 120.279 32.5781 118.402 32.5781C116.525 32.5781 115.241 33.5479 115.241 34.958C115.241 36.0825 116.061 36.7436 118.067 37.2499L119.782 37.6804C122.977 38.4517 124.302 39.7623 124.302 42.0879C124.302 45.0622 121.984 46.9259 118.293 46.9259C114.84 46.9259 112.509 45.1067 112.358 42.2304H114.744V42.2342ZM129.334 32.3284V35.0691H131.492V36.9535H129.334V43.3433C129.334 44.3391 129.766 44.7987 130.713 44.7987C130.969 44.7939 131.225 44.7755 131.479 44.7436V46.6172C131.053 46.6984 130.619 46.7351 130.185 46.7267C127.887 46.7267 126.99 45.8451 126.99 43.5969V36.9573H125.339V35.0691H126.99V32.3284H129.331H129.334ZM132.742 40.8692C132.742 37.2216 134.846 34.9297 138.126 34.9297C141.406 34.9297 143.511 37.2216 143.511 40.8692C143.511 44.5168 141.428 46.8087 138.126 46.8087C134.823 46.8087 132.742 44.5268 132.742 40.87V40.8692ZM141.137 40.8692C141.137 38.3667 140.014 36.8906 138.126 36.8906C136.237 36.8906 135.115 38.3782 135.115 40.8692C135.115 43.3809 136.237 44.8462 138.126 44.8462C140.014 44.8462 141.137 43.3809 141.137 40.8692ZM145.432 35.0691H147.653V37.0454H147.707C147.851 36.4347 148.201 35.8924 148.699 35.5106C149.197 35.1289 149.811 34.9312 150.438 34.9512C150.707 34.9504 150.974 34.9802 151.236 35.04V37.266C150.897 37.1601 150.543 37.1114 150.188 37.122C149.848 37.109 149.51 37.1709 149.196 37.3032C148.882 37.4356 148.602 37.6352 148.374 37.888C148.142 38.1436 147.968 38.4455 147.863 38.7737C147.757 39.1019 147.722 39.4489 147.761 39.7914V46.6677H145.432V35.0691ZM161.977 43.2568C161.664 45.361 159.657 46.8056 157.089 46.8056C153.787 46.8056 151.738 44.5459 151.738 40.9205C151.738 37.2951 153.798 34.9266 156.991 34.9266C160.132 34.9266 162.107 37.1296 162.107 40.644V41.4598H154.095V41.6038C154.056 42.0297 154.107 42.4589 154.245 42.8638C154.382 43.2688 154.603 43.6404 154.893 43.9546C155.179 44.2639 155.529 44.5078 155.917 44.6696C156.306 44.8314 156.726 44.9073 157.147 44.8922C157.701 44.9419 158.257 44.8097 158.73 44.5156C159.202 44.2215 159.567 43.7815 159.767 43.2621L161.977 43.2568ZM154.1 39.7976H159.776C159.797 39.415 159.74 39.0322 159.608 38.6724C159.476 38.3126 159.273 37.9834 159.01 37.7049C158.751 37.4298 158.437 37.212 158.089 37.0657C157.74 36.9194 157.365 36.8477 156.987 36.8554C156.607 36.8537 156.229 36.9285 155.878 37.0753C155.527 37.2222 155.208 37.4381 154.942 37.7103C154.398 38.2681 154.096 39.0176 154.1 39.7968L154.1 39.7976Z" fill="white"/>
</g>
<rect x="1" y="1" width="178" height="61" rx="9" stroke="#C6C6C6" stroke-width="2"/>
<defs>
<clipPath id="clip0_1_4884">
<rect width="94.1095" height="20" fill="white" transform="translate(68 30.5)"/>
</clipPath>
</defs>
</svg>
