<svg width="131" height="42" viewBox="0 0 131 42" fill="none" xmlns="http://www.w3.org/2000/svg">
<path id="Vector" d="M16.5573 6.60796C16.5573 6.60796 17.008 5.56019 16.8743 5.00688C16.8016 3.73544 15.7241 3.64715 14.7804 4.11217C14.7804 4.11217 14.7804 4.11217 14.6161 3.91792C11.231 5.44838 9.62278 9.47462 7.55218 12.5591C5.06135 16.3322 2.92968 20.1347 0.798007 23.9373C-0.688055 26.5273 1.16154 30.2945 4.48556 29.4822C11.1031 28.2166 17.5257 27.1159 24.277 26.4036C25.1902 26.2976 25.7747 25.8032 26.1949 25.1145L26.7489 24.9791C27.3335 24.4846 27.3335 24.4846 27.918 23.9902C27.918 23.9902 27.918 23.9902 28.3077 23.6606C28.6974 23.3309 28.7279 22.9719 28.5942 22.4185C28.6247 22.0595 28.6552 21.7004 28.5215 21.1471C28.3571 20.9528 28.2234 20.3995 27.8947 20.011C27.7304 19.8168 27.5661 19.6225 27.4018 19.4283C27.0732 19.0398 26.714 19.0104 26.3549 18.9809C26.1906 18.7867 25.6366 18.9221 25.2774 18.8927C25.2774 18.8927 24.7539 18.669 24.5591 18.8338C24.1999 18.8044 23.8408 18.7749 23.4511 19.1046C22.4041 18.6572 21.3267 18.5689 20.2492 18.4806C25.7471 15.4963 31.5735 12.9004 37.6981 11.052C48.2853 7.76156 59.7666 6.71375 71.0648 7.82034C92.748 10.1395 115.177 22.8244 128.467 40.9071C129.289 41.8783 130.653 40.7246 130.026 39.5885C116.621 18.6039 95.7507 4.60043 70.8961 1.2983C52.835 -1.08558 32.2642 2.6523 16.726 13.13C17.104 10.8108 17.2872 8.65639 16.5573 6.60796Z" fill="#1653A4"/>
</svg>
