<svg width="100" height="21" viewBox="0 0 100 21" fill="none" xmlns="http://www.w3.org/2000/svg">
<g id="google play" clip-path="url(#clip0_12_66)">
<path id="Path 47" d="M31.8209 6.02578C30.8337 6.02943 29.8697 6.32549 29.0506 6.8766C28.2316 7.42771 27.5942 8.20916 27.2189 9.12226C26.8436 10.0354 26.7474 11.0392 26.9422 12.007C27.137 12.9748 27.6142 13.8631 28.3136 14.5599C29.0129 15.2567 29.903 15.7306 30.8715 15.9219C31.84 16.1131 32.8435 16.0131 33.7552 15.6345C34.6669 15.2559 35.446 14.6156 35.9941 13.7945C36.5422 12.9735 36.8347 12.0084 36.8347 11.0212C36.8445 10.3609 36.7214 9.7054 36.4727 9.09368C36.224 8.48197 35.8547 7.92654 35.3869 7.46046C34.9191 6.99439 34.3623 6.62718 33.7497 6.38071C33.1371 6.13424 32.4811 6.01354 31.8209 6.02578ZM31.8209 14.0475C31.213 14.0909 30.606 13.9503 30.0791 13.6439C29.5522 13.3376 29.1298 12.8797 28.8668 12.3298C28.6039 11.78 28.5125 11.1637 28.6047 10.5612C28.6969 9.95878 28.9684 9.39803 29.3838 8.95203C29.7992 8.50602 30.3393 8.19542 30.9337 8.06067C31.5281 7.92592 32.1493 7.97326 32.7164 8.19653C33.2835 8.41981 33.7702 8.80867 34.1132 9.31247C34.4562 9.81628 34.6396 10.4117 34.6394 11.0212C34.6578 11.4061 34.599 11.7908 34.4664 12.1526C34.3339 12.5144 34.1303 12.8461 33.8677 13.1281C33.6051 13.4101 33.2887 13.6367 32.9372 13.7946C32.5857 13.9525 32.2061 14.0385 31.8209 14.0475ZM20.8835 6.02578C19.8963 6.02943 18.9323 6.32549 18.1133 6.8766C17.2942 7.42771 16.6568 8.20916 16.2815 9.12226C15.9063 10.0354 15.81 11.0392 16.0048 12.007C16.1996 12.9748 16.6768 13.8631 17.3762 14.5599C18.0755 15.2567 18.9656 15.7306 19.9341 15.9219C20.9026 16.1131 21.9061 16.0131 22.8178 15.6345C23.7295 15.2559 24.5086 14.6156 25.0567 13.7945C25.6048 12.9735 25.8973 12.0084 25.8973 11.0212C25.907 10.3609 25.7839 9.70546 25.5351 9.09379C25.2863 8.48212 24.9171 7.92674 24.4493 7.46068C23.9815 6.99463 23.4248 6.62742 22.8122 6.38091C22.1996 6.13441 21.5437 6.01363 20.8835 6.02578ZM20.8835 14.0475C20.2756 14.0909 19.6686 13.9503 19.1418 13.6439C18.6149 13.3376 18.1924 12.8797 17.9294 12.3298C17.6665 11.78 17.5751 11.1637 17.6674 10.5612C17.7596 9.95878 18.031 9.39803 18.4464 8.95203C18.8618 8.50602 19.4019 8.19542 19.9963 8.06067C20.5907 7.92592 21.2119 7.97326 21.779 8.19653C22.3461 8.41981 22.8328 8.80867 23.1758 9.31247C23.5188 9.81628 23.7022 10.4117 23.702 11.0212C23.7204 11.4061 23.6616 11.7908 23.5291 12.1526C23.3965 12.5144 23.1929 12.8461 22.9303 13.1281C22.6677 13.4101 22.3513 13.6367 21.9998 13.7946C21.6483 13.9525 21.2687 14.0385 20.8835 14.0475ZM7.87138 7.55737V9.67749H12.9419C12.8689 10.6712 12.4624 11.6112 11.7883 12.345C11.2801 12.863 10.6689 13.2687 9.99426 13.5359C9.31961 13.8031 8.59643 13.9259 7.87138 13.8964C6.39822 13.8634 4.99653 13.255 3.96634 12.2014C2.93614 11.1479 2.35931 9.73288 2.35931 8.25935C2.35931 6.78582 2.93614 5.37084 3.96634 4.31728C4.99653 3.26372 6.39822 2.6553 7.87138 2.62225C9.29505 2.60353 10.6686 3.14758 11.6933 4.13611L13.1887 2.64069C12.4892 1.94818 11.6585 1.40231 10.7453 1.03508C9.83215 0.667856 8.85481 0.486663 7.87066 0.502134C6.84305 0.48824 5.82292 0.678641 4.86951 1.06228C3.91609 1.44592 3.0484 2.01515 2.3168 2.73692C1.58521 3.45868 1.0043 4.31861 0.607809 5.26675C0.211317 6.21489 0.00714111 7.23235 0.00714111 8.26006C0.00714111 9.28776 0.211317 10.3052 0.607809 11.2534C1.0043 12.2015 1.58521 13.0614 2.3168 13.7832C3.0484 14.505 3.91609 15.0742 4.86951 15.4578C5.82292 15.8415 6.84305 16.0319 7.87066 16.018C8.87531 16.0596 9.87732 15.8872 10.8102 15.512C11.7431 15.1368 12.5855 14.5675 13.2816 13.8418C14.5177 12.4928 15.1766 10.7135 15.1174 8.88475C15.1223 8.43961 15.0838 7.99504 15.0025 7.55737H7.87138ZM61.0842 9.20312C60.7839 8.29843 60.2124 7.50811 59.4473 6.93952C58.6822 6.37094 57.7606 6.05167 56.8078 6.02507C56.1659 6.02898 55.5315 6.16303 54.943 6.41911C54.3544 6.67518 53.8239 7.04797 53.3836 7.51492C52.9432 7.98187 52.6021 8.53329 52.3809 9.13583C52.1597 9.73836 52.063 10.3795 52.0967 11.0205C52.0824 11.6771 52.2005 12.33 52.444 12.94C52.6876 13.55 53.0516 14.1046 53.5143 14.5708C53.977 15.037 54.5289 15.4052 55.137 15.6533C55.7451 15.9015 56.3971 16.0245 57.0538 16.0151C57.8767 16.0197 58.6878 15.8199 59.4143 15.4335C60.1407 15.0471 60.7599 14.4863 61.216 13.8014L59.5143 12.6669C59.2592 13.0905 58.8984 13.4405 58.4674 13.6826C58.0363 13.9248 57.5497 14.0507 57.0552 14.0482C56.5464 14.0677 56.0434 13.934 55.6114 13.6643C55.1794 13.3946 54.8383 13.0015 54.6323 12.5357L61.3118 9.77037L61.0842 9.20312ZM54.2721 10.8687C54.2488 10.5052 54.2981 10.1407 54.4172 9.79649C54.5364 9.45227 54.723 9.13526 54.966 8.86399C55.2091 8.59272 55.5038 8.37262 55.833 8.21657C56.1621 8.06053 56.5191 7.97166 56.8829 7.95516C57.2619 7.92995 57.6399 8.01699 57.9697 8.2054C58.2995 8.39381 58.5664 8.67524 58.7371 9.01451L54.2721 10.8687ZM48.8428 15.7117H51.0367V1.02968H48.8428V15.7117ZM45.2464 7.14044H45.1712C44.8375 6.778 44.4303 6.49097 43.9768 6.2985C43.5232 6.10603 43.0338 6.01257 42.5413 6.02436C41.2537 6.07969 40.0371 6.63014 39.1456 7.56083C38.254 8.49153 37.7563 9.73057 37.7563 11.0194C37.7563 12.3082 38.254 13.5473 39.1456 14.478C40.0371 15.4087 41.2537 15.9591 42.5413 16.0144C43.0358 16.0278 43.5272 15.9332 43.9814 15.7373C44.4356 15.5414 44.8416 15.2488 45.1712 14.8799H45.2464V15.5996C45.2464 17.5106 44.2261 18.5323 42.5789 18.5323C42.0301 18.5191 41.4977 18.3429 41.0494 18.0261C40.6012 17.7092 40.2573 17.2662 40.0617 16.7533L38.1507 17.5482C38.511 18.425 39.1248 19.1743 39.9136 19.7001C40.7024 20.2259 41.6302 20.5042 42.5782 20.4993C45.1514 20.4993 47.3289 18.9854 47.3289 15.2962V6.32785H45.2464V7.14044ZM42.7306 14.0461C42.3492 14.0352 41.9738 13.9483 41.6265 13.7905C41.2791 13.6326 40.9667 13.407 40.7077 13.1268C40.4487 12.8467 40.2482 12.5176 40.118 12.159C39.9879 11.8003 39.9306 11.4193 39.9497 11.0382C39.9282 10.6545 39.9835 10.2704 40.1123 9.90833C40.2411 9.54627 40.4408 9.21354 40.6998 8.92962C40.9587 8.64569 41.2717 8.41627 41.6204 8.2548C41.9692 8.09332 42.3466 8.00302 42.7306 7.9892C44.226 7.9892 45.3981 9.27616 45.3981 11.0382C45.4279 11.4125 45.3819 11.7889 45.2627 12.145C45.1436 12.5011 44.9538 12.8295 44.7047 13.1104C44.4556 13.3914 44.1524 13.6192 43.8132 13.7803C43.474 13.9413 43.1058 14.0322 42.7306 14.0475V14.0461ZM71.3657 1.03394H66.1143V15.7117H68.3046V10.1504H71.365C71.9841 10.1832 72.6034 10.0895 73.1852 9.87518C73.7669 9.66082 74.2989 9.33023 74.7487 8.90358C75.1986 8.47692 75.5568 7.96312 75.8016 7.39351C76.0464 6.8239 76.1727 6.21041 76.1727 5.59042C76.1727 4.97042 76.0464 4.35693 75.8016 3.78731C75.5568 3.2177 75.1986 2.70391 74.7487 2.27725C74.2989 1.8506 73.7669 1.52001 73.1852 1.30564C72.6034 1.09128 71.9841 0.997625 71.365 1.03039L71.3657 1.03394ZM71.4224 8.11044H68.3025V3.07606H71.4224C72.09 3.07606 72.7303 3.34126 73.2023 3.81332C73.6744 4.28539 73.9396 4.92565 73.9396 5.59325C73.9396 6.26085 73.6744 6.90111 73.2023 7.37318C72.7303 7.84524 72.09 8.11044 71.4224 8.11044ZM84.9656 6.00238C84.1657 5.95569 83.3696 6.14342 82.6749 6.54256C81.9801 6.9417 81.4169 7.5349 81.0544 8.24942L83.0008 9.06202C83.1936 8.70719 83.4858 8.4163 83.8414 8.225C84.1971 8.03369 84.6008 7.95027 85.0032 7.98494C86.1377 7.98494 87.2885 8.66494 87.3077 9.87461V10.0249C86.6041 9.65088 85.8192 9.45605 85.0223 9.45768C82.9256 9.45768 80.7906 10.6099 80.7906 12.7626C80.7906 14.7275 82.5101 15.9939 84.4359 15.9939C84.9879 16.0263 85.5386 15.9102 86.0304 15.6575C86.5223 15.4049 86.9374 15.0249 87.2325 14.5573H87.3077V15.6918H89.4228V10.059C89.4235 7.45314 87.4785 5.99742 84.9663 5.99742L84.9656 6.00238ZM84.704 14.0454C83.985 14.0454 82.9845 13.6873 82.9845 12.7995C82.9845 11.665 84.2303 11.2318 85.3074 11.2318C86.0067 11.2132 86.6982 11.3827 87.3098 11.7224C87.2293 12.3591 86.9211 12.9451 86.4421 13.3721C85.963 13.7991 85.3456 14.0383 84.704 14.0454ZM97.1325 6.3165L94.6203 12.6818H94.5451L91.9365 6.31934H89.576L93.4844 15.2153L91.255 20.1646H93.5404L99.5675 6.31863L97.1325 6.3165ZM77.3906 15.7117H79.5824V1.03394H77.3906V15.7117Z" fill="white"/>
</g>
<defs>
<clipPath id="clip0_12_66">
<rect width="99.5675" height="20" fill="white" transform="translate(0 0.5)"/>
</clipPath>
</defs>
</svg>
