<svg width="34" height="39" viewBox="0 0 34 39" fill="none" xmlns="http://www.w3.org/2000/svg">
<g id="google play 1" clip-path="url(#clip0_12_54)">
<path id="Path 33" d="M0.680082 1.08779C0.198308 1.66756 -0.0449205 2.40987 -7.86409e-06 3.16337V35.8375C-0.0451925 36.591 0.198068 37.3334 0.680082 37.9131L0.789429 38.0192L19.0318 19.7163V19.2846L0.789429 0.979858L0.680082 1.08779Z" fill="url(#paint0_linear_12_54)"/>
<path id="Path 34" d="M25.1135 25.82L19.0336 19.7154V19.2837L25.1162 13.1809L25.2531 13.2603L32.454 17.3633C34.5112 18.5362 34.5112 20.4557 32.454 21.6287L25.2531 25.7316L25.1135 25.82Z" fill="url(#paint1_linear_12_54)"/>
<path id="Path 35" d="M25.2522 25.7432L19.0292 19.4995L0.680084 37.9131C1.35928 38.6338 2.47943 38.723 3.74182 38.0023L25.2522 25.7432Z" fill="url(#paint2_linear_12_54)"/>
<path id="Path 36" d="M25.2522 13.2603L3.74182 0.999493C2.47943 0.279685 1.35928 0.368879 0.680084 1.08869L19.0318 19.5004L25.2522 13.2603Z" fill="url(#paint3_linear_12_54)"/>
<g id="Group 31">
<path id="Path 37" opacity="0.2" d="M25.1153 25.6032L3.74183 37.7873C2.54612 38.4697 1.47753 38.4242 0.79122 37.8034L0.680984 37.9131L0.790331 38.021C1.47664 38.6454 2.54523 38.6873 3.74094 38.005L25.2549 25.7424L25.1153 25.6032Z" fill="black"/>
<path id="Path 38" opacity="0.12" d="M0.680096 37.6973C0.198081 37.1176 -0.0451792 36.3752 5.41052e-06 35.6217V35.8384C-0.0453123 36.5917 0.197978 37.3339 0.680096 37.9131L0.790331 37.8034L0.680096 37.6973Z" fill="black"/>
</g>
<path id="Path 39" opacity="0.12" d="M32.4576 21.4181L25.1153 25.6032L25.2522 25.7406L32.4531 21.6376C32.8783 21.453 33.2462 21.1572 33.5183 20.781C33.7905 20.4049 33.9568 19.9623 34 19.4995C33.9095 19.9177 33.7229 20.3089 33.4551 20.642C33.1874 20.9751 32.8458 21.2409 32.4576 21.4181Z" fill="black"/>
<path id="Path 40" opacity="0.25" d="M3.74182 1.21357L32.4567 17.5827C32.8449 17.7598 33.1866 18.0254 33.4546 18.3583C33.7225 18.6913 33.9093 19.0823 34 19.5005C33.957 19.0387 33.7911 18.597 33.5196 18.2216C33.2481 17.8463 32.8809 17.551 32.4567 17.3669L3.74182 0.9995C1.68289 -0.173422 0 0.801485 0 3.16517V3.38191C0 1.01555 1.68289 0.0406468 3.74182 1.21357Z" fill="white"/>
</g>
<defs>
<linearGradient id="paint0_linear_12_54" x1="17.4137" y1="245.958" x2="-11.81" y2="238.217" gradientUnits="userSpaceOnUse">
<stop stop-color="#00A0FF"/>
<stop offset="0.007" stop-color="#00A1FF"/>
<stop offset="0.26" stop-color="#00BEFF"/>
<stop offset="0.512" stop-color="#00D2FF"/>
<stop offset="0.76" stop-color="#00DFFF"/>
<stop offset="1" stop-color="#00E3FF"/>
</linearGradient>
<linearGradient id="paint1_linear_12_54" x1="35.1341" y1="229.283" x2="-0.493489" y2="229.283" gradientUnits="userSpaceOnUse">
<stop stop-color="#FFE000"/>
<stop offset="0.409" stop-color="#FFBD00"/>
<stop offset="0.775" stop-color="#FFA500"/>
<stop offset="1" stop-color="#FF9C00"/>
</linearGradient>
<linearGradient id="paint2_linear_12_54" x1="21.8612" y1="225.904" x2="-1.68953" y2="186.354" gradientUnits="userSpaceOnUse">
<stop stop-color="#FF3A44"/>
<stop offset="1" stop-color="#C31162"/>
</linearGradient>
<linearGradient id="paint3_linear_12_54" x1="-3.93947" y1="258.556" x2="6.58371" y2="240.9" gradientUnits="userSpaceOnUse">
<stop stop-color="#32A071"/>
<stop offset="0.068" stop-color="#2DA771"/>
<stop offset="0.476" stop-color="#15CF74"/>
<stop offset="0.801" stop-color="#06E775"/>
<stop offset="1" stop-color="#00F076"/>
</linearGradient>
<clipPath id="clip0_12_54">
<rect width="34" height="38" fill="white" transform="translate(0 0.5)"/>
</clipPath>
</defs>
</svg>
