<svg width="60" height="60" viewBox="0 0 60 60" fill="none" xmlns="http://www.w3.org/2000/svg">
<g id="Group 7391">
<g id="Group 2644">
<path id="Path 4048" d="M12.2549 18.7238L2.66351 30.4707C1.61778 31.5751 1.80221 33.0835 1.86681 33.9713L2.41916 45.5523C2.50623 46.6604 2.67662 47.1169 3.79444 47.3438L8.99689 48.317C9.77394 48.4557 10.4639 48.6919 11.0837 47.8754C12.0433 46.6116 13.9129 44.1432 14.3463 43.5301C14.7873 42.9019 15.3556 41.2041 16.6812 37.3004C17.4985 34.9098 20.2697 28.2066 20.2697 28.2066C20.5908 27.137 20.0178 25.7382 18.3308 25.0688C17.7027 24.8042 16.9986 24.7841 16.3564 25.0123C15.7143 25.2405 15.1804 25.7007 14.8594 26.3026L10.1241 34.1438" stroke="#1653A4" stroke-width="2" stroke-linecap="round" stroke-linejoin="round"/>
<path id="Path 4049" d="M48.6365 18.7238L58.2287 30.4707C59.2745 31.5751 59.09 33.0835 59.0254 33.9713L58.474 45.5523C58.387 46.6604 58.2156 47.1169 57.0987 47.3438L51.8963 48.317C51.1183 48.4557 50.4293 48.6919 49.8095 47.8754C48.8499 46.6116 46.9803 44.1432 46.5469 43.5301C46.1059 42.9019 45.5376 41.2041 44.212 37.3004C43.3947 34.9098 40.6235 28.2066 40.6235 28.2066C40.3024 27.137 40.8754 25.7382 42.5624 25.0688C43.1904 24.8043 43.8943 24.7841 44.5363 25.0124C45.1783 25.2406 45.7121 25.7007 46.0329 26.3026L50.7691 34.1438" stroke="#1653A4" stroke-width="2" stroke-linecap="round" stroke-linejoin="round"/>
<path id="Line 586" d="M14.952 22.4438V20.9841" stroke="#1653A4" stroke-width="2" stroke-miterlimit="10" stroke-linecap="round"/>
<path id="Line 587" d="M43.5875 24.8757V11.5416" stroke="#1653A4" stroke-width="2" stroke-miterlimit="10"/>
<path id="Line 588" d="M17.3749 24.3779V11.5416" stroke="#1653A4" stroke-width="2" stroke-miterlimit="10"/>
<path id="Line 589" d="M18.7708 31.8863H42.0625" stroke="#1653A4" stroke-width="2" stroke-miterlimit="10"/>
<path id="Path 4050" d="M48.2021 29.8969C48.221 29.8175 48.2354 29.7371 48.2451 29.656C48.5176 26.7891 48.6505 24.0544 48.6505 21.2898C48.6683 18.8733 48.5523 16.4577 48.3032 14.0541C48.0223 12.4304 47.1292 11.5416 46.1499 11.5416H15.3996C14.76 11.5308 14.1378 11.7499 13.6457 12.1591C13.1536 12.5682 12.8243 13.1404 12.7173 13.7719C12.4487 16.6369 12.311 19.1673 12.311 21.7079C12.311 24.2485 12.4487 26.7882 12.722 29.6823C12.7276 29.7254 12.7342 29.7666 12.7426 29.8088" stroke="#1653A4" stroke-width="2" stroke-miterlimit="10"/>
</g>
</g>
</svg>
