<svg width="60" height="60" viewBox="0 0 60 60" fill="none" xmlns="http://www.w3.org/2000/svg">
<g id="Group 7493">
<g id="Group 3728">
<g id="Group 2457">
<path id="Line 286" d="M37.3734 37.5815L41.4675 32.8077" stroke="#1653A4" stroke-width="2" stroke-linecap="round" stroke-linejoin="round"/>
<path id="Line 287" d="M47.0681 37.3696L42.5522 32.1027" stroke="#1653A4" stroke-width="2" stroke-linecap="round" stroke-linejoin="round"/>
<path id="Path 3358" d="M16.7035 34.2702L8.76564 52.1005C8.76564 52.1005 8.31565 53.9896 10.6153 54.913C13.1869 55.9443 13.9388 54.149 13.9388 54.149L21.9844 41.3268" stroke="#1653A4" stroke-width="2" stroke-linejoin="round"/>
<path id="Path 3359" d="M26.4488 57.6533C28.3238 54.7836 31.8863 44.4018 31.8863 44.4018C32.0518 44.0764 32.1426 43.7182 32.152 43.3532C32.1614 42.9883 32.0892 42.6259 31.9406 42.2924L26.5969 31.9874L29.7684 19.9958C30.4134 17.143 28.9247 14.4158 25.8309 14.3877C23.6428 14.3718 13.9566 16.3471 12.4097 16.7521C11.3578 17.0333 10.9097 17.6605 10.6041 18.869L8.60532 28.5918C8.52002 28.8683 8.49559 29.1599 8.5337 29.4467C8.57182 29.7335 8.67158 30.0087 8.82613 30.2533C8.98067 30.4979 9.18634 30.7062 9.429 30.8637C9.67166 31.0213 9.94556 31.1245 10.2319 31.1662C10.7866 31.3676 11.3974 31.3483 11.9383 31.1123C12.4792 30.8762 12.9087 30.4414 13.1381 29.8977L16.1269 22.349L18.6206 22.0743L16.2497 30.3393C16.0406 31.2935 16.0603 32.2836 16.3073 33.2287C16.5544 34.1738 17.0216 35.047 17.6709 35.7768C19.3116 37.7915 24.1941 44.2274 24.1941 44.2274L21.6131 54.7761C21.4167 55.3778 21.4473 56.0305 21.6993 56.6111C21.9514 57.1916 22.4073 57.6598 22.9809 57.9271C23.9878 58.5112 25.7944 58.6508 26.4488 57.6533Z" stroke="#1653A4" stroke-width="2" stroke-linejoin="round"/>
<path id="Path 3360" d="M37.7925 7.58897C37.7929 8.77096 37.4427 9.92651 36.7863 10.9095C36.1298 11.8924 35.1967 12.6586 34.1047 13.1111C33.0128 13.5637 31.8112 13.6822 30.6519 13.4518C29.4926 13.2214 28.4277 12.6523 27.5918 11.8166C26.7559 10.9809 26.1867 9.91601 25.9561 8.75674C25.7255 7.59747 25.8438 6.39585 26.2962 5.30386C26.7486 4.21186 27.5146 3.27854 28.4975 2.62196C29.4803 1.96538 30.6358 1.61503 31.8178 1.61522C33.4022 1.61522 34.9218 2.24456 36.0422 3.36483C37.1627 4.4851 37.7922 6.00455 37.7925 7.58897V7.58897Z" stroke="#1653A4" stroke-width="2" stroke-linejoin="round"/>
<path id="Path 3361" d="M51.0375 37.5815L49.4259 47.2377C49.394 47.4252 49.2968 47.5954 49.1515 47.7181C49.0061 47.8408 48.8221 47.9081 48.6319 47.908H36.3572C36.167 47.9079 35.9831 47.8405 35.8378 47.7179C35.6925 47.5952 35.5952 47.4251 35.5631 47.2377L33.9506 37.5815H51.0375Z" stroke="#1653A4" stroke-width="2" stroke-linejoin="round"/>
<path id="Line 288" d="M37.1991 40.2993L38.0456 45.3599" stroke="#1653A4" stroke-width="2" stroke-miterlimit="10" stroke-linecap="round"/>
<path id="Line 289" d="M41.0119 45.3599L40.7691 40.2993" stroke="#1653A4" stroke-width="2" stroke-miterlimit="10" stroke-linecap="round"/>
<path id="Line 290" d="M47.791 40.2993L46.9444 45.3599" stroke="#1653A4" stroke-width="2" stroke-miterlimit="10" stroke-linecap="round"/>
<path id="Line 291" d="M43.9781 45.3599L44.1544 40.2993" stroke="#1653A4" stroke-width="2" stroke-miterlimit="10" stroke-linecap="round"/>
<path id="Line 292" d="M33.5138 37.5815H51.4772" stroke="#1653A4" stroke-width="2" stroke-miterlimit="10" stroke-linecap="round"/>
<path id="Path 3362" d="M29.5359 16.7587L34.4588 23.594L42.3272 28.7305C42.7264 29.0537 43.0049 29.5021 43.1178 30.0032C43.2306 30.5043 43.1711 31.0288 42.949 31.4919C42.7269 31.9551 42.3551 32.3297 41.8936 32.5554C41.4322 32.7811 40.9082 32.8445 40.4063 32.7355C40.4063 32.7355 33.9909 30.0505 31.7672 29.1599C31.2896 28.9508 30.8821 28.6088 30.5934 28.1746C30.2184 27.7621 28.3566 25.3499 28.3566 25.3499" stroke="#1653A4" stroke-width="2" stroke-linejoin="round"/>
</g>
</g>
</g>
</svg>
