<svg width="60" height="60" viewBox="0 0 60 60" fill="none" xmlns="http://www.w3.org/2000/svg">
<g id="Group 7428">
<g id="Group 7155">
<path id="Path 14985" d="M17.8106 13.6408C16.5919 9.98457 11.9934 9.17832 10.6856 9.95551C9.19125 10.8461 12.5034 16.518 8.94375 27.0339C7.47187 31.3689 6.10406 35.6018 5.8275 39.1971C4.76156 53.0721 18.0825 60.094 26.8941 56.3608L39.8494 50.7827" stroke="#1653A4" stroke-width="2" stroke-miterlimit="10"/>
<path id="Path 14986" d="M45.8653 25.4318V6.91426C45.8804 6.03101 45.5784 5.17162 45.014 4.49202C44.4496 3.81242 43.6603 3.35765 42.7894 3.21021C38.8378 2.83521 35.3484 2.64771 31.845 2.64771C28.3416 2.64771 24.8381 2.83521 20.8463 3.21021C19.9822 3.36368 19.2013 3.82054 18.6441 4.49856C18.0869 5.17657 17.79 6.03121 17.8069 6.90864V46.6952C17.7913 47.5784 18.0932 48.4378 18.6577 49.1172C19.2221 49.7967 20.0117 50.2509 20.8828 50.3974C24.8363 50.7724 28.6087 50.9599 32.4206 50.9599C35.7531 50.9864 39.0845 50.8277 42.3994 50.4846C44.1806 50.2146 46.1203 48.9977 46.1203 47.2427" stroke="#1653A4" stroke-width="2" stroke-miterlimit="10"/>
<path id="Path 14987" d="M51.7744 34.2387C51.5508 33.6669 51.1589 33.1765 50.6504 32.8325C50.142 32.4885 49.541 32.307 48.9272 32.3121C48.5334 32.3102 48.1433 32.3883 47.7806 32.5418L44.4937 33.979C43.7388 34.3197 43.1458 34.9403 42.8397 35.7099C42.5336 36.4794 42.5384 37.3379 42.8531 38.104C43.0778 38.6746 43.4699 39.1639 43.9779 39.5074C44.486 39.851 45.0861 40.0327 45.6994 40.0287C46.0942 40.03 46.4852 39.9513 46.8487 39.7971L50.13 38.3599C50.8858 38.0212 51.4801 37.4016 51.787 36.6324C52.0939 35.8631 52.0894 35.0046 51.7744 34.2387V34.2387Z" stroke="#1653A4" stroke-width="2" stroke-miterlimit="10"/>
<path id="Path 14988" d="M46.8928 47.044L49.8647 45.7446C50.5475 45.437 51.084 44.8759 51.3608 44.18C51.6375 43.484 51.6329 42.7078 51.3478 42.0152C51.1459 41.4988 50.7921 41.0559 50.3331 40.7449C49.8741 40.4338 49.3316 40.2694 48.7772 40.2733C48.4198 40.2715 48.0657 40.3423 47.7365 40.4815L44.7656 41.779C44.0823 42.0872 43.5456 42.6488 43.2687 43.3454C42.9917 44.042 42.9964 44.8189 43.2816 45.5121C43.4847 46.0284 43.8395 46.471 44.2992 46.7817C44.759 47.0923 45.302 47.2563 45.8569 47.2521C46.2127 47.2541 46.5653 47.1833 46.8928 47.044V47.044Z" stroke="#1653A4" stroke-width="2" stroke-miterlimit="10"/>
<path id="Path 14989" d="M42.8681 30.1802C43.093 30.7509 43.4853 31.2403 43.9935 31.584C44.5016 31.9277 45.1018 32.1096 45.7153 32.1058C46.1093 32.1075 46.4994 32.0287 46.8619 31.8743L49.0903 30.858C49.8457 30.5178 50.4393 29.8974 50.7458 29.1277C51.0523 28.358 51.0476 27.4993 50.7328 26.733C50.5079 26.1621 50.1156 25.6726 49.6075 25.3286C49.0994 24.9846 48.4992 24.8023 47.8856 24.8055C47.4904 24.8032 47.0989 24.882 46.7353 25.0371L44.5087 26.0561C43.7529 26.3955 43.1589 27.0159 42.8527 27.7857C42.5464 28.5555 42.552 29.4144 42.8681 30.1802Z" stroke="#1653A4" stroke-width="2" stroke-miterlimit="10"/>
<path id="Line 945" d="M28.4803 46.4711H35.1909" stroke="#1653A4" stroke-width="2" stroke-miterlimit="10" stroke-linecap="round"/>
<path id="Line 946" d="M30.675 6.4549H32.9953" stroke="#1653A4" stroke-width="2" stroke-miterlimit="10" stroke-linecap="round"/>
<path id="Line 947" d="M17.8069 42.4361H43.8384" stroke="#1653A4" stroke-width="2" stroke-miterlimit="10"/>
<path id="Line 948" d="M17.8069 9.98551H45.8653" stroke="#1653A4" stroke-width="2" stroke-miterlimit="10"/>
<path id="Path 14990" d="M45.8653 21.9171L51.8653 19.3502C52.7193 18.9653 53.3903 18.2634 53.7363 17.3929C54.0824 16.5224 54.0764 15.5514 53.7197 14.6852C53.59 14.2849 53.3797 13.9155 53.1018 13.5996C52.8238 13.2837 52.4841 13.0281 52.1036 12.8486C51.7231 12.669 51.3098 12.5693 50.8893 12.5556C50.4687 12.5419 50.0498 12.6145 49.6584 12.769C49.1184 12.9246 46.5787 13.8218 45.8662 14.1208" stroke="#1653A4" stroke-width="2" stroke-miterlimit="10"/>
<path id="Path 14991" d="M27.4509 27.5946V25.9896C27.4413 25.8988 27.4593 25.8073 27.5024 25.7269C27.5456 25.6464 27.6119 25.5809 27.6928 25.5386L36.6994 20.4302M39.6834 22.1786L32.1469 17.733C32.0625 17.6833 31.9664 17.6571 31.8684 17.6571C31.7705 17.6571 31.6744 17.6833 31.59 17.733L22.9528 22.7571C22.8695 22.8054 22.8004 22.8747 22.7524 22.9581C22.7043 23.0416 22.679 23.1361 22.6791 23.2324V31.5311C22.6791 31.6288 22.7052 31.7246 22.7547 31.8088C22.8041 31.893 22.8751 31.9626 22.9603 32.0102L30.5541 36.3283C30.6367 36.376 30.7305 36.4009 30.8259 36.4005C30.9247 36.4012 31.0219 36.3753 31.1072 36.3255L39.6881 31.3005C39.7712 31.2523 39.8402 31.1831 39.8881 31.0999C39.9359 31.0166 39.9611 30.9222 39.9609 30.8261V22.654C39.9603 22.5574 39.9343 22.4627 39.8856 22.3793C39.8369 22.2959 39.7672 22.2267 39.6834 22.1786Z" stroke="#1653A4" stroke-width="2" stroke-linecap="round" stroke-linejoin="round"/>
</g>
</g>
</svg>
