<svg width="60" height="60" viewBox="0 0 60 60" fill="none" xmlns="http://www.w3.org/2000/svg">
<g id="Group 7429">
<g id="Group 7164">
<path id="Path 15032" d="M12.7603 24.8259L16.6809 21.4743C15.2657 18.6797 14.8936 15.4719 15.6314 12.4274C16.3693 9.38293 18.1688 6.70143 20.7066 4.86482C23.2443 3.02821 26.3538 2.15689 29.4764 2.40746C32.599 2.65803 35.5298 4.01405 37.7422 6.23183C39.9546 8.44961 41.3035 11.3837 41.5464 14.5069C41.7894 17.6301 40.9105 20.7375 39.0677 23.2708C37.2249 25.804 34.5391 27.597 31.4928 28.3274C28.4466 29.0579 25.2397 28.678 22.4484 27.2559L16.6359 33.9619" stroke="#1653A4" stroke-width="2" stroke-linejoin="round"/>
<path id="Path 15033" d="M15.7566 26.9944C15.0723 26.2173 14.2419 25.5824 13.3125 25.1259C12.508 24.5769 11.5515 24.2942 10.5778 24.3178C8.83126 24.4547 7.53188 26.04 5.80407 28.0387C4.16438 29.9409 2.65594 31.7475 2.63251 33.4284C2.63983 34.1405 2.90647 34.8254 3.38251 35.355C4.06108 36.0115 4.82366 36.5751 5.65032 37.0312C7.20044 37.9911 9.0089 38.4494 10.8291 38.3437C11.7039 38.284 12.5579 38.0496 13.3407 37.6543C14.1234 37.259 14.8189 36.7108 15.3863 36.0422C17.7572 33.2831 17.6531 29.2003 15.7566 26.9944Z" stroke="#1653A4" stroke-width="2" stroke-linejoin="round"/>
<path id="Path 15034" d="M19.2994 30.8887C22.5019 33.1772 26.7394 33.8241 31.1391 33.8991L37.5 40.56L44.6578 35.2219C52.9388 36.7275 57.3675 40.6594 57.3675 50.325V60" stroke="#1653A4" stroke-width="2" stroke-linejoin="round"/>
<path id="Path 15035" d="M11.7516 38.2097C15.5074 41.3931 19.8678 43.7847 24.571 45.2409V60.0028" stroke="#1653A4" stroke-width="2" stroke-linejoin="round"/>
<path id="Path 15036" d="M33.7781 27.3825C35.2498 28.5955 36.9916 29.4367 38.8566 29.8351C40.7217 30.2335 42.6552 30.1775 44.494 29.6717C46.3328 29.166 48.023 28.2253 49.422 26.9292C50.8209 25.633 51.8875 24.0194 52.5319 22.2244C53.1762 20.4294 53.3793 18.5058 53.1241 16.6159C52.8689 14.7259 52.1628 12.9251 51.0654 11.3653C49.968 9.80557 48.5116 8.53266 46.8189 7.65401C45.1263 6.77535 43.2471 6.31673 41.34 6.31685C40.2841 6.31659 39.2328 6.45592 38.2134 6.73123" stroke="#1653A4" stroke-width="2" stroke-linejoin="round"/>
<path id="Path 15037" d="M24.8072 16.3134V14.8884C24.7986 14.8077 24.8144 14.7263 24.8527 14.6547C24.891 14.5831 24.95 14.5248 25.0219 14.4872L33.0188 9.95249M35.6682 11.504L28.9772 7.55529C28.9023 7.51146 28.817 7.48837 28.7302 7.48837C28.6434 7.48837 28.5581 7.51146 28.4832 7.55529L20.8153 12.0169C20.7412 12.0595 20.6795 12.1209 20.6367 12.195C20.5939 12.2691 20.5715 12.3532 20.5716 12.4387V19.8065C20.5717 19.8931 20.5948 19.9781 20.6385 20.0528C20.6821 20.1276 20.7447 20.1895 20.82 20.2322L27.5616 24.0656C27.6354 24.1072 27.7188 24.1288 27.8035 24.1284C27.89 24.1285 27.975 24.1059 28.05 24.0628L35.6672 19.6012C35.7409 19.5585 35.8021 19.497 35.8445 19.4232C35.887 19.3493 35.9093 19.2655 35.9091 19.1803V11.924C35.9087 11.8392 35.8863 11.7559 35.8441 11.6822C35.8019 11.6086 35.7412 11.5472 35.6682 11.504V11.504Z" stroke="#1653A4" stroke-width="2" stroke-linecap="round" stroke-linejoin="round"/>
</g>
</g>
</svg>
